{
	"asset":{
		"generator":"Khronos glTF Blender I/O v5.0.21",
		"version":"2.0"
	},
	"scene":0,
	"scenes":[
		{
			"name":"Scene",
			"nodes":[
				3
			]
		}
	],
	"nodes":[
		{
			"mesh":0,
			"name":"ExcavatorStepper",
			"scale":[
				2.5996639728546143,
				2.5996639728546143,
				2.5996639728546143
			],
			"translation":[
				-14.148184776306152,
				20.78738021850586,
				-19.92747688293457
			]
		},
		{
			"mesh":1,
			"name":"MicroscopeSwivel",
			"rotation":[
				1,
				0,
				0,
				1.9470715528768778e-07
			],
			"scale":[
				0.3582318127155304,
				0.3981163501739502,
				0.3582318127155304
			],
			"translation":[
				0.0042607784271240234,
				0.694803774356842,
				0.06486690044403076
			]
		},
		{
			"children":[
				1
			],
			"mesh":2,
			"name":"MicroscopeStepper",
			"rotation":[
				-1,
				0,
				0,
				1.9470719792025193e-07
			],
			"scale":[
				8.482040405273438,
				8.482040405273438,
				8.482040405273438
			],
			"translation":[
				-46.327911376953125,
				-1.7722911834716797,
				25.503475189208984
			]
		},
		{
			"children":[
				0,
				2
			],
			"mesh":3,
			"name":"Base",
			"scale":[
				0.32910585403442383,
				0.32910585403442383,
				0.32910585403442383
			],
			"translation":[
				9.531612396240234,
				1.6875309944152832,
				8.342000961303711
			]
		}
	],
	"materials":[
		{
			"doubleSided":true,
			"name":"Material",
			"pbrMetallicRoughness":{
				"baseColorFactor":[
					0.800000011920929,
					0.800000011920929,
					0.800000011920929,
					1
				],
				"metallicFactor":0,
				"roughnessFactor":0.5
			}
		}
	],
	"meshes":[
		{
			"name":"Cylinder.005",
			"primitives":[
				{
					"attributes":{
						"POSITION":0,
						"NORMAL":1,
						"TEXCOORD_0":2
					},
					"indices":3
				},
				{
					"attributes":{
						"POSITION":4,
						"NORMAL":5,
						"TEXCOORD_0":6
					},
					"indices":7,
					"material":0
				}
			]
		},
		{
			"name":"Cylinder.008",
			"primitives":[
				{
					"attributes":{
						"POSITION":8,
						"NORMAL":9,
						"TEXCOORD_0":10
					},
					"indices":11
				}
			]
		},
		{
			"name":"Cube.020",
			"primitives":[
				{
					"attributes":{
						"POSITION":12,
						"NORMAL":13,
						"TEXCOORD_0":14
					},
					"indices":15
				}
			]
		},
		{
			"name":"Cube.016",
			"primitives":[
				{
					"attributes":{
						"POSITION":16,
						"NORMAL":17,
						"TEXCOORD_0":18
					},
					"indices":19,
					"material":0
				},
				{
					"attributes":{
						"POSITION":20,
						"NORMAL":21,
						"TEXCOORD_0":22
					},
					"indices":23
				}
			]
		}
	],
	"accessors":[
		{
			"bufferView":0,
			"componentType":5126,
			"count":1042,
			"max":[
				2.651372194290161,
				19.24582862854004,
				2.651372194290161
			],
			"min":[
				-16.234533309936523,
				-13.960322380065918,
				-7.6288042068481445
			],
			"type":"VEC3"
		},
		{
			"bufferView":1,
			"componentType":5126,
			"count":1042,
			"type":"VEC3"
		},
		{
			"bufferView":2,
			"componentType":5126,
			"count":1042,
			"type":"VEC2"
		},
		{
			"bufferView":3,
			"componentType":5123,
			"count":5472,
			"type":"SCALAR"
		},
		{
			"bufferView":4,
			"componentType":5126,
			"count":334,
			"max":[
				-4.912840843200684,
				8.868997573852539,
				-5.0716447830200195
			],
			"min":[
				-15.560857772827148,
				-3.463433265686035,
				-7.177097320556641
			],
			"type":"VEC3"
		},
		{
			"bufferView":5,
			"componentType":5126,
			"count":334,
			"type":"VEC3"
		},
		{
			"bufferView":6,
			"componentType":5126,
			"count":334,
			"type":"VEC2"
		},
		{
			"bufferView":7,
			"componentType":5123,
			"count":1512,
			"type":"SCALAR"
		},
		{
			"bufferView":8,
			"componentType":5126,
			"count":1920,
			"max":[
				7.681529998779297,
				3.9457204341888428,
				4.84511137008667
			],
			"min":[
				-1.6912981271743774,
				-1.5510401725769043,
				-1.4972783327102661
			],
			"type":"VEC3"
		},
		{
			"bufferView":9,
			"componentType":5126,
			"count":1920,
			"type":"VEC3"
		},
		{
			"bufferView":10,
			"componentType":5126,
			"count":1920,
			"type":"VEC2"
		},
		{
			"bufferView":11,
			"componentType":5123,
			"count":2976,
			"type":"SCALAR"
		},
		{
			"bufferView":12,
			"componentType":5126,
			"count":2865,
			"max":[
				0.785268247127533,
				1.2425674200057983,
				2.3660807609558105
			],
			"min":[
				-0.7742840647697449,
				-6.851864814758301,
				-0.4158262014389038
			],
			"type":"VEC3"
		},
		{
			"bufferView":13,
			"componentType":5126,
			"count":2865,
			"type":"VEC3"
		},
		{
			"bufferView":14,
			"componentType":5126,
			"count":2865,
			"type":"VEC2"
		},
		{
			"bufferView":15,
			"componentType":5123,
			"count":9768,
			"type":"SCALAR"
		},
		{
			"bufferView":16,
			"componentType":5126,
			"count":3006,
			"max":[
				3.131381034851074,
				89.64070129394531,
				8.634370803833008
			],
			"min":[
				-70.20024108886719,
				-21.329364776611328,
				-54.203147888183594
			],
			"type":"VEC3"
		},
		{
			"bufferView":17,
			"componentType":5126,
			"count":3006,
			"type":"VEC3"
		},
		{
			"bufferView":18,
			"componentType":5126,
			"count":3006,
			"type":"VEC2"
		},
		{
			"bufferView":19,
			"componentType":5123,
			"count":13608,
			"type":"SCALAR"
		},
		{
			"bufferView":20,
			"componentType":5126,
			"count":3181,
			"max":[
				0.08166219294071198,
				96.65412902832031,
				17.501079559326172
			],
			"min":[
				-53.95263671875,
				-21.0853328704834,
				-44.754085540771484
			],
			"type":"VEC3"
		},
		{
			"bufferView":21,
			"componentType":5126,
			"count":3181,
			"type":"VEC3"
		},
		{
			"bufferView":22,
			"componentType":5126,
			"count":3181,
			"type":"VEC2"
		},
		{
			"bufferView":23,
			"componentType":5123,
			"count":10440,
			"type":"SCALAR"
		}
	],
	"bufferViews":[
		{
			"buffer":0,
			"byteLength":12504,
			"byteOffset":0,
			"target":34962
		},
		{
			"buffer":0,
			"byteLength":12504,
			"byteOffset":12504,
			"target":34962
		},
		{
			"buffer":0,
			"byteLength":8336,
			"byteOffset":25008,
			"target":34962
		},
		{
			"buffer":0,
			"byteLength":10944,
			"byteOffset":33344,
			"target":34963
		},
		{
			"buffer":0,
			"byteLength":4008,
			"byteOffset":44288,
			"target":34962
		},
		{
			"buffer":0,
			"byteLength":4008,
			"byteOffset":48296,
			"target":34962
		},
		{
			"buffer":0,
			"byteLength":2672,
			"byteOffset":52304,
			"target":34962
		},
		{
			"buffer":0,
			"byteLength":3024,
			"byteOffset":54976,
			"target":34963
		},
		{
			"buffer":0,
			"byteLength":23040,
			"byteOffset":58000,
			"target":34962
		},
		{
			"buffer":0,
			"byteLength":23040,
			"byteOffset":81040,
			"target":34962
		},
		{
			"buffer":0,
			"byteLength":15360,
			"byteOffset":104080,
			"target":34962
		},
		{
			"buffer":0,
			"byteLength":5952,
			"byteOffset":119440,
			"target":34963
		},
		{
			"buffer":0,
			"byteLength":34380,
			"byteOffset":125392,
			"target":34962
		},
		{
			"buffer":0,
			"byteLength":34380,
			"byteOffset":159772,
			"target":34962
		},
		{
			"buffer":0,
			"byteLength":22920,
			"byteOffset":194152,
			"target":34962
		},
		{
			"buffer":0,
			"byteLength":19536,
			"byteOffset":217072,
			"target":34963
		},
		{
			"buffer":0,
			"byteLength":36072,
			"byteOffset":236608,
			"target":34962
		},
		{
			"buffer":0,
			"byteLength":36072,
			"byteOffset":272680,
			"target":34962
		},
		{
			"buffer":0,
			"byteLength":24048,
			"byteOffset":308752,
			"target":34962
		},
		{
			"buffer":0,
			"byteLength":27216,
			"byteOffset":332800,
			"target":34963
		},
		{
			"buffer":0,
			"byteLength":38172,
			"byteOffset":360016,
			"target":34962
		},
		{
			"buffer":0,
			"byteLength":38172,
			"byteOffset":398188,
			"target":34962
		},
		{
			"buffer":0,
			"byteLength":25448,
			"byteOffset":436360,
			"target":34962
		},
		{
			"buffer":0,
			"byteLength":20880,
			"byteOffset":461808,
			"target":34963
		}
	],
	"buffers":[
		{
			"byteLength":482688,
			"uri":"data:application/octet-stream;base64,"
		}
	]
}
